<?xml version="1.0" standalone="no"?>
<!DOCTYPE svg PUBLIC "-//W3C//DTD SVG 20010904//EN"
 "http://www.w3.org/TR/2001/REC-SVG-20010904/DTD/svg10.dtd">
<svg version="1.0" xmlns="http://www.w3.org/2000/svg"
 width="214.000000pt" height="156.000000pt" viewBox="0 0 214.000000 156.000000"
 preserveAspectRatio="xMidYMid meet">

<g transform="translate(0.000000,156.000000) scale(0.100000,-0.100000)"
fill="#000000" stroke="none">
<path d="M872 1458 c-6 -7 -20 -44 -32 -81 l-22 -68 -70 -35 c-83 -42 -89 -66
-18 -74 l45 -5 0 -108 c0 -102 1 -110 24 -128 13 -10 34 -19 47 -19 14 0 28
-9 35 -22 6 -13 25 -37 41 -54 l29 -31 -38 -8 c-60 -11 -76 -23 -70 -53 4 -22
-2 -33 -34 -60 -47 -41 -91 -131 -114 -233 l-16 -76 -70 35 c-73 38 -100 37
-107 -3 -6 -28 31 -145 46 -145 22 0 25 28 8 77 -9 25 -16 50 -16 55 0 11 51
-15 109 -55 l43 -30 97 16 c327 55 661 44 743 -22 23 -20 23 -20 3 -35 -27
-20 -139 -56 -175 -56 -19 0 -31 6 -35 18 -18 58 -185 53 -185 -5 0 -14 -12
-15 -87 -10 -57 4 -91 11 -98 20 -5 8 -20 19 -32 25 -28 15 -120 16 -129 1 -4
-7 -24 -9 -55 -6 -41 5 -53 2 -87 -23 -36 -26 -96 -60 -105 -60 -3 0 -7 9 -10
20 -9 34 -39 14 -35 -24 2 -26 8 -32 31 -34 16 -2 49 7 77 22 53 28 61 30 58
19 -1 -5 1 -23 5 -40 l6 -33 364 0 c269 0 366 3 375 12 7 7 12 25 12 40 0 22
6 29 28 34 51 13 123 55 134 79 9 21 8 29 -8 46 -23 26 -76 53 -130 68 -40 11
-40 11 -58 85 -20 85 -38 117 -56 99 -9 -8 -9 -22 3 -60 33 -104 33 -103 -17
-103 -51 0 -50 -1 -66 108 -5 40 -14 91 -19 114 -6 24 -7 45 -4 48 3 3 17 -10
32 -27 15 -18 33 -33 39 -33 23 0 11 37 -22 69 -22 22 -36 45 -38 65 -3 27 -9
33 -48 45 -25 8 -47 15 -49 17 -2 2 13 22 33 44 20 22 36 45 36 50 0 6 14 10
30 10 19 0 40 9 54 23 22 22 23 28 18 130 l-5 107 47 0 c43 0 47 2 44 21 -2
15 -23 31 -65 53 -61 30 -63 33 -84 96 -33 99 -36 101 -148 98 -77 -2 -96 -6
-96 -18 0 -12 18 -16 93 -18 73 -2 92 -6 92 -17 0 -13 -26 -15 -156 -15 -120
0 -155 3 -152 13 3 6 18 14 34 17 17 3 30 12 32 23 3 14 -4 17 -36 17 -22 0
-44 -6 -50 -12z m188 -117 l-115 -5 120 -6 120 -6 -157 -2 c-144 -2 -171 2
-151 21 3 4 72 6 152 5 l146 -2 -115 -5z m230 -83 c24 -17 14 -18 -245 -17
l-270 1 40 19 c36 18 59 19 245 17 176 -3 208 -5 230 -20z m-377 -91 c-41 -17
-54 -28 -59 -49 -10 -49 -34 -34 -34 22 l0 50 73 -1 72 0 -52 -22z m177 -2
c-57 -31 -68 -31 -66 0 1 24 4 25 56 25 l55 -1 -45 -24z m182 -7 c11 -69 -24
-98 -37 -30 -4 20 -11 43 -17 50 -8 9 -3 12 20 12 26 0 30 -4 34 -32z m-81
-50 c27 -100 -7 -195 -84 -239 -48 -26 -94 -21 -143 16 -41 31 -52 51 -63 112
-15 76 -4 111 37 129 19 8 36 13 36 12 18 -50 55 -54 137 -15 30 14 57 26 61
26 4 1 12 -18 19 -41z m-341 -98 c0 -32 -1 -33 -24 -24 -16 6 -22 35 -9 47 16
17 33 5 33 -23z m434 14 c7 -19 -10 -44 -30 -44 -9 0 -14 11 -14 30 0 23 5 30
19 30 10 0 22 -7 25 -16z m-186 -243 c4 -29 -25 -98 -45 -105 -28 -11 -71 103
-47 126 3 3 24 5 47 4 36 -1 42 -4 45 -25z m-136 -36 c2 -25 1 -45 -1 -45 -8
0 -71 63 -71 71 0 8 23 16 51 18 13 1 18 -10 21 -44z m226 39 c23 -7 23 -7
-14 -45 -41 -42 -61 -51 -44 -20 5 11 10 31 10 45 0 27 8 30 48 20z m-343
-189 c-8 -55 -17 -121 -20 -146 l-6 -47 -49 -9 c-44 -9 -50 -8 -50 7 0 28 38
167 55 199 16 32 75 104 81 99 1 -2 -4 -48 -11 -103z m142 55 c12 0 25 -4 28
-10 8 -12 52 -13 59 -1 3 4 22 11 42 14 20 3 44 13 54 22 21 19 25 14 34 -40
l7 -41 -164 1 -163 0 7 40 c5 22 8 43 9 47 0 4 15 -1 33 -12 17 -11 42 -20 54
-20z m203 -109 c25 -7 42 -41 20 -41 -6 0 -9 4 -6 8 9 15 -158 6 -198 -11 -21
-10 -42 -17 -47 -17 -4 0 -24 -16 -44 -37 -19 -20 -38 -34 -41 -31 -3 3 -4 22
-2 42 2 29 6 34 18 26 13 -9 13 -11 0 -19 -8 -6 -12 -13 -8 -16 3 -3 17 5 31
19 15 14 34 26 44 27 16 0 16 1 -2 10 -15 7 -12 8 15 4 31 -4 33 -3 15 8 -17
10 -12 13 45 18 l65 6 -72 1 c-43 1 -73 -2 -73 -8 0 -5 -4 -10 -8 -10 -5 0 -9
7 -9 15 0 13 19 15 116 14 64 -1 127 -4 141 -8z m-275 -28 c-2 -16 -4 -29 -4
-31 -1 -2 -8 3 -16 12 -21 21 -19 46 4 46 16 0 19 -6 16 -27z m282 -58 c20 -8
34 -17 32 -19 -2 -2 -65 -6 -139 -10 -105 -5 -131 -3 -115 6 62 37 163 47 222
23z m-300 -203 c19 -3 25 -39 11 -61 -9 -15 -23 -21 -49 -21 -32 0 -38 4 -47
30 -17 47 7 62 85 52z m367 -2 c28 -10 35 -47 14 -68 -16 -16 -70 -16 -86 0
-16 16 -15 65 1 71 20 9 44 8 71 -3z m-504 -22 c0 -7 3 -23 6 -35 6 -20 3 -23
-25 -23 -29 0 -31 2 -31 35 0 31 3 35 25 35 14 0 25 -6 25 -12z m375 -49 c5
-5 -28 -9 -83 -9 -78 0 -92 2 -92 16 0 14 11 15 83 9 45 -4 86 -11 92 -16z
m255 6 c0 -11 -11 -15 -36 -15 -31 0 -35 2 -24 15 7 8 23 15 36 15 15 0 24 -6
24 -15z"/>
<path d="M868 1173 c6 -2 18 -2 25 0 6 3 1 5 -13 5 -14 0 -19 -2 -12 -5z"/>
<path d="M1045 1160 c-3 -6 1 -7 9 -4 18 7 21 14 7 14 -6 0 -13 -4 -16 -10z"/>
<path d="M1243 1165 c0 -8 4 -12 9 -9 5 3 6 10 3 15 -9 13 -12 11 -12 -6z"/>
<path d="M952 1028 c2 -13 10 -23 18 -23 8 0 16 10 18 23 3 17 -2 22 -18 22
-16 0 -21 -5 -18 -22z"/>
<path d="M1103 1034 c-6 -16 15 -37 29 -28 4 3 8 14 8 25 0 23 -28 26 -37 3z"/>
<path d="M983 947 c-3 -6 2 -16 12 -24 35 -25 115 -10 115 21 0 17 -117 19
-127 3z"/>
<path d="M1128 533 c6 -2 18 -2 25 0 6 3 1 5 -13 5 -14 0 -19 -2 -12 -5z"/>
<path d="M1411 346 c-8 -10 -8 -16 2 -24 17 -14 42 2 34 22 -8 20 -21 20 -36
2z"/>
</g>
</svg>
