<?xml version="1.0" standalone="no"?>
<!DOCTYPE svg PUBLIC "-//W3C//DTD SVG 20010904//EN"
 "http://www.w3.org/TR/2001/REC-SVG-20010904/DTD/svg10.dtd">
<svg version="1.0" xmlns="http://www.w3.org/2000/svg"
 width="319.000000pt" height="257.000000pt" viewBox="0 0 319.000000 257.000000"
 preserveAspectRatio="xMidYMid meet">

<g transform="translate(0.000000,257.000000) scale(0.100000,-0.100000)"
fill="#000000" stroke="none">
<path d="M1423 2434 c-6 -3 -22 -35 -34 -72 -25 -79 -27 -81 -99 -120 -35 -20
-56 -38 -58 -51 -3 -19 2 -21 44 -21 l47 0 -5 -104 c-7 -123 1 -142 63 -152
21 -4 39 -12 39 -19 0 -6 16 -28 35 -48 19 -20 35 -38 35 -40 0 -3 -20 -10
-44 -16 -49 -12 -71 -33 -62 -57 4 -11 -7 -29 -35 -56 -49 -48 -93 -139 -110
-228 -7 -36 -16 -69 -20 -73 -4 -5 -25 3 -46 17 -55 37 -97 48 -120 31 -16
-12 -16 -17 -4 -62 8 -26 16 -60 19 -75 5 -30 29 -38 38 -13 3 8 -1 36 -10 62
-9 25 -16 50 -16 55 0 11 75 -27 117 -59 l32 -25 148 22 c204 29 474 37 572
16 80 -17 136 -44 136 -67 0 -17 -96 -57 -158 -65 -39 -6 -46 -3 -74 25 -26
26 -39 31 -78 31 -49 0 -95 -23 -95 -48 0 -13 -13 -14 -86 -9 -71 5 -90 10
-115 32 -35 29 -112 35 -144 11 -13 -10 -29 -11 -58 -4 -36 8 -45 6 -81 -20
-40 -29 -100 -62 -111 -62 -3 0 -5 7 -5 15 0 17 -26 20 -35 4 -4 -5 -4 -21 -1
-35 9 -33 40 -31 110 5 l56 30 0 -33 c0 -17 5 -37 12 -44 13 -13 704 -18 725
-4 6 4 15 22 20 40 7 29 16 36 62 53 114 40 131 95 46 141 -27 15 -65 30 -83
34 -37 7 -41 15 -67 116 -16 62 -36 90 -50 67 -4 -5 0 -31 8 -57 33 -103 33
-102 -17 -102 -28 0 -46 5 -49 14 -3 7 -13 65 -22 127 -9 63 -19 117 -22 122
-2 4 0 7 6 7 6 0 20 -13 33 -30 12 -16 28 -30 35 -30 26 0 12 38 -24 71 -28
24 -38 41 -38 63 0 28 -4 31 -53 45 l-54 16 27 25 c15 14 33 37 41 53 8 15 23
27 34 27 29 0 69 21 74 39 3 9 4 62 3 118 l-2 102 45 3 c72 5 66 30 -17 72
l-68 34 -23 70 c-12 38 -29 75 -36 81 -9 8 -48 11 -107 9 -76 -2 -94 -6 -94
-18 0 -12 19 -16 89 -20 59 -3 91 -9 94 -17 3 -10 -32 -13 -152 -13 -131 0
-155 2 -150 14 3 8 18 16 32 18 38 4 35 32 -3 35 -16 1 -35 0 -42 -3z m142
-123 l-150 -5 150 -6 150 -6 -152 -2 c-140 -2 -166 2 -146 21 3 4 72 6 152 5
l146 -2 -150 -5z m255 -81 c35 -19 33 -19 -238 -22 -149 -2 -272 -2 -272 -1 0
2 17 12 38 23 34 18 55 20 237 19 174 -1 205 -4 235 -19z m-335 -79 c-11 -5
-23 -7 -27 -4 -5 2 -8 0 -8 -5 0 -5 -11 -14 -25 -20 -14 -6 -25 -18 -25 -27 0
-8 -8 -15 -17 -15 -15 0 -16 -2 -3 -10 13 -8 12 -10 -2 -10 -15 0 -18 9 -18
50 l0 50 73 -1 c47 0 65 -3 52 -8z m146 -17 c-66 -30 -66 -30 -67 1 -2 24 0
25 60 24 l61 0 -54 -25z m181 -5 c3 -18 -1 -36 -9 -44 -10 -10 -10 -14 0 -18
8 -4 7 -6 -3 -6 -9 0 -21 18 -31 49 l-16 50 28 0 c22 0 27 -5 31 -31z m-81
-51 c6 -24 9 -67 6 -97 -14 -136 -143 -204 -237 -124 -52 43 -64 78 -61 180 1
39 4 44 38 58 20 8 37 14 37 13 18 -50 55 -54 137 -15 30 14 57 26 61 26 4 1
12 -18 19 -41z m-341 -98 c0 -32 -1 -33 -24 -24 -16 6 -22 35 -9 47 16 17 33
5 33 -23z m436 15 c7 -18 -12 -45 -32 -45 -9 0 -14 11 -14 30 0 23 4 30 20 30
11 0 23 -7 26 -15z m-190 -230 c9 -23 -4 -77 -26 -105 l-19 -25 -22 22 c-15
14 -23 38 -27 72 l-5 51 47 0 c32 0 48 -5 52 -15z m-134 -50 c2 -25 1 -45 -1
-45 -8 0 -71 63 -71 71 0 8 23 16 51 18 13 1 18 -10 21 -44z m231 37 c15 -6
12 -13 -24 -47 -38 -36 -41 -38 -35 -15 3 14 6 35 6 48 0 23 18 27 53 14z
m-347 -178 c-8 -49 -18 -115 -21 -146 -4 -32 -9 -58 -13 -58 -4 -1 -26 -5 -49
-9 -37 -7 -43 -6 -43 9 0 28 38 167 55 199 17 35 76 104 82 98 2 -2 -3 -44
-11 -93z m141 46 c12 0 25 -4 28 -10 8 -12 52 -13 59 -1 3 4 22 11 42 14 20 3
44 13 54 22 21 19 25 14 34 -40 l7 -40 -164 0 -163 0 7 40 c5 22 8 43 9 47 0
4 15 -1 33 -12 17 -11 42 -20 54 -20z m200 -109 c15 -4 29 -15 31 -25 3 -14
-1 -15 -25 -9 -83 23 -236 -14 -275 -68 -31 -41 -48 -37 -48 11 0 39 12 52 26
28 4 -7 3 -8 -4 -4 -7 4 -12 1 -12 -8 0 -9 4 -16 9 -16 14 0 32 26 23 35 -4 5
1 5 11 2 9 -4 17 -2 17 3 0 6 -8 11 -17 11 -17 1 -17 2 0 6 9 2 17 9 17 14 0
5 8 9 17 9 16 0 16 -1 0 -12 -33 -25 -4 -35 43 -16 40 17 17 18 -26 1 -12 -4
-15 -3 -10 5 4 6 21 16 39 22 l32 10 -30 -3 c-16 -2 -43 -1 -60 3 -18 5 20 8
92 8 67 0 135 -3 150 -7z m-272 -12 c18 -9 18 -9 -3 -5 -17 3 -22 1 -18 -10 3
-8 1 -14 -4 -14 -6 0 -10 9 -10 20 0 22 5 23 35 9z m282 -74 c20 -8 34 -17 32
-19 -2 -2 -65 -6 -139 -10 -105 -5 -131 -3 -115 6 62 37 163 47 222 23z m-292
-209 c16 -12 18 -19 10 -43 -9 -23 -17 -29 -49 -31 -44 -4 -53 2 -60 40 -3 19
1 31 12 38 25 14 65 12 87 -4z m373 2 c7 -7 12 -21 12 -33 0 -30 -19 -45 -55
-45 -17 0 -36 5 -43 12 -16 16 -15 65 1 71 23 10 73 7 85 -5z m-525 -15 c2 -5
7 -20 11 -35 6 -26 4 -28 -24 -28 -28 0 -30 3 -30 35 0 28 4 35 19 35 11 0 22
-3 24 -7z m358 -43 c16 0 29 -4 29 -10 0 -6 -38 -10 -95 -10 -83 0 -94 2 -88
16 5 14 16 15 66 10 33 -3 73 -6 88 -6z m279 -5 c0 -11 -11 -15 -36 -15 -31 0
-35 2 -24 15 7 8 23 15 36 15 15 0 24 -6 24 -15z"/>
<path d="M1580 2145 c0 -8 29 -12 39 -5 9 5 4 8 -13 8 -14 0 -26 -2 -26 -3z"/>
<path d="M1786 2125 c-3 -8 -1 -15 4 -15 6 0 10 7 10 15 0 8 -2 15 -4 15 -2 0
-6 -7 -10 -15z"/>
<path d="M1492 1998 c2 -13 10 -23 18 -23 8 0 16 10 18 23 3 17 -2 22 -18 22
-16 0 -21 -5 -18 -22z"/>
<path d="M1645 2010 c-8 -13 14 -42 26 -34 5 3 9 14 9 25 0 20 -24 26 -35 9z"/>
<path d="M1531 1927 c-16 -16 16 -47 51 -47 36 0 68 16 68 35 0 18 -21 24 -42
11 -11 -7 -24 -7 -41 1 -18 8 -28 8 -36 0z"/>
<path d="M1651 1506 c2 -2 22 -6 44 -9 27 -4 35 -3 25 3 -14 9 -79 15 -69 6z"/>
<path d="M1608 1493 c7 -3 16 -2 19 1 4 3 -2 6 -13 5 -11 0 -14 -3 -6 -6z"/>
<path d="M1518 1153 c7 -3 16 -2 19 1 4 3 -2 6 -13 5 -11 0 -14 -3 -6 -6z"/>
<path d="M1951 1316 c-9 -10 -8 -16 4 -26 19 -16 41 1 32 24 -8 20 -21 20 -36
2z"/>
<path d="M507 872 c-15 -16 -17 -45 -17 -198 0 -226 -1 -224 109 -224 104 0
108 5 113 136 l3 101 -54 2 -54 2 7 -33 c4 -18 11 -34 16 -36 6 -2 10 -26 10
-53 l0 -50 -37 3 -38 3 -3 139 c-3 150 3 169 47 164 21 -2 27 -9 29 -35 3 -31
6 -33 40 -33 l37 0 -4 52 c-1 29 -8 59 -13 66 -7 8 -39 12 -93 12 -67 0 -85
-3 -98 -18z"/>
<path d="M780 670 l0 -221 108 3 107 3 3 35 3 35 -73 0 -73 0 0 55 0 55 38 0
c37 0 37 0 37 40 0 40 0 40 -37 40 l-38 0 -3 52 c-3 49 -1 53 23 59 14 3 49 4
76 2 l50 -5 -3 31 -3 31 -107 3 -108 3 0 -221z"/>
<path d="M1067 872 c-13 -14 -17 -39 -17 -109 0 -108 9 -120 90 -125 l55 -3 0
-55 0 -55 -37 -3 c-37 -3 -38 -3 -38 32 0 35 -1 36 -37 36 l-38 0 3 -52 c6
-77 19 -88 112 -88 103 0 110 8 110 127 0 81 -2 92 -23 111 -18 17 -36 22 -75
22 l-52 0 0 55 0 55 41 0 c40 0 41 -1 37 -30 -4 -29 -3 -30 36 -30 l41 0 -3
48 c-6 71 -21 82 -112 82 -62 0 -80 -4 -93 -18z"/>
<path d="M1327 883 c-4 -3 -7 -19 -7 -35 0 -27 2 -28 45 -28 l46 0 -3 -185 -3
-185 40 0 40 0 -3 185 -3 185 46 0 c38 0 45 3 45 19 0 49 -6 51 -124 51 -62 0
-116 -3 -119 -7z"/>
<path d="M1615 670 l0 -220 40 0 40 0 0 220 0 220 -40 0 -40 0 0 -220z"/>
<path d="M1755 670 l0 -220 37 0 37 0 3 93 3 92 33 0 c30 0 32 2 32 37 0 37
-1 38 -35 38 l-36 0 3 58 3 57 73 -1 c74 0 77 1 66 44 -6 21 -11 22 -113 22
l-106 0 0 -220z"/>
<path d="M2025 670 l0 -220 38 0 37 0 0 220 0 220 -37 0 -38 0 0 -220z"/>
<path d="M2177 872 c-13 -14 -17 -39 -17 -109 0 -109 10 -123 88 -123 59 0 70
-12 67 -75 -1 -40 -2 -40 -41 -40 -38 0 -39 1 -38 33 2 31 1 32 -37 32 l-39 0
0 -48 c0 -72 25 -92 117 -92 96 0 103 8 103 132 0 114 -8 125 -90 130 l-55 3
0 50 0 50 40 0 c38 0 40 -2 37 -27 -3 -26 -1 -28 36 -28 l39 0 -5 53 c-2 28
-9 58 -14 65 -7 8 -39 12 -93 12 -67 0 -85 -3 -98 -18z"/>
<path d="M2450 670 l0 -220 38 0 37 0 0 92 0 93 35 0 35 0 3 -92 3 -93 37 0
37 0 0 220 0 220 -37 0 -38 0 0 -91 0 -90 -37 3 -38 3 0 88 0 87 -37 0 -38 0
0 -220z"/>
<path d="M488 294 c13 -9 26 -13 30 -9 8 8 -17 25 -38 25 -9 0 -6 -6 8 -16z"/>
<path d="M1371 301 c-9 -6 -10 -11 -2 -15 6 -4 11 -19 11 -33 0 -19 -4 -24
-17 -19 -15 6 -15 5 1 -13 13 -14 17 -32 14 -63 -1 -24 0 -44 5 -45 20 -7 26
-1 19 20 -4 12 -7 57 -7 99 0 81 -1 83 -24 69z"/>
<path d="M1820 300 c0 -5 5 -10 10 -10 6 0 10 5 10 10 0 6 -4 10 -10 10 -5 0
-10 -4 -10 -10z"/>
<path d="M2145 300 c-3 -5 1 -10 9 -10 9 0 16 5 16 10 0 6 -4 10 -9 10 -6 0
-13 -4 -16 -10z"/>
<path d="M2525 302 c-5 -4 -10 -51 -10 -105 0 -80 3 -97 15 -97 12 0 14 13 12
72 -4 122 -6 138 -17 130z"/>
<path d="M100 280 c-17 -31 -4 -54 45 -85 24 -16 47 -35 50 -43 8 -20 -11 -40
-43 -45 -25 -4 -25 -4 4 -6 40 -1 69 29 60 63 -3 14 -25 36 -51 53 -50 31 -61
49 -44 69 8 10 8 14 1 14 -6 0 -16 -9 -22 -20z"/>
<path d="M188 279 c20 -23 22 -24 22 -1 0 10 -8 18 -19 19 -18 2 -19 0 -3 -18z"/>
<path d="M440 279 c-6 -11 -12 -56 -13 -100 -2 -64 1 -79 13 -79 12 0 14 12
12 61 -3 44 0 64 10 70 11 7 11 9 -1 9 -9 0 -12 9 -9 30 5 35 3 37 -12 9z"/>
<path d="M528 248 c-10 -10 -14 -18 -8 -18 5 0 10 -28 12 -62 3 -54 6 -63 23
-66 16 -3 18 -1 8 9 -7 7 -13 37 -13 65 0 42 4 53 18 57 15 4 15 5 0 6 -9 0
-18 7 -20 14 -2 9 -8 8 -20 -5z"/>
<path d="M2598 248 c-10 -10 -14 -18 -8 -18 5 0 10 -28 12 -62 3 -53 6 -63 23
-67 16 -3 17 -1 7 12 -8 9 -12 40 -11 81 1 37 0 68 -2 70 -2 1 -12 -6 -21 -16z"/>
<path d="M315 233 c29 -7 45 -32 45 -69 0 -59 -53 -73 -79 -19 -11 22 -11 36
-3 58 9 23 8 27 -3 17 -30 -25 -25 -90 9 -112 20 -14 56 -8 76 12 40 40 11
122 -42 119 -21 -1 -21 -2 -3 -6z"/>
<path d="M612 233 c2 -5 14 -36 27 -71 20 -51 26 -60 34 -47 6 11 6 20 -1 24
-5 3 -15 25 -22 48 -7 23 -19 44 -27 47 -8 4 -13 3 -11 -1z"/>
<path d="M694 206 c1 -19 5 -34 10 -33 5 1 13 -11 19 -28 13 -39 16 -42 27
-26 5 9 3 20 -6 28 -8 8 -17 32 -20 54 -8 48 -31 52 -30 5z"/>
<path d="M780 225 c0 -8 2 -15 4 -15 2 0 6 7 10 15 3 8 1 15 -4 15 -6 0 -10
-7 -10 -15z"/>
<path d="M887 229 c6 -8 11 -34 11 -59 0 -67 1 -70 18 -70 12 0 14 3 6 13 -6
7 -12 37 -14 67 -2 37 -8 55 -18 58 -12 4 -13 2 -3 -9z"/>
<path d="M985 232 c-6 -4 -10 -35 -10 -70 0 -48 3 -62 15 -62 12 0 15 13 13
66 -2 71 -3 77 -18 66z"/>
<path d="M1026 231 c-3 -5 1 -11 9 -15 15 -6 29 7 18 18 -9 9 -21 8 -27 -3z"/>
<path d="M1128 230 c12 -5 22 -16 22 -25 0 -8 7 -15 15 -15 8 0 15 4 15 8 0
16 -36 42 -56 41 -17 0 -16 -1 4 -9z"/>
<path d="M1300 220 c-42 -42 -15 -121 41 -119 15 0 18 3 9 6 -49 18 -66 78
-33 115 22 24 8 23 -17 -2z"/>
<path d="M1498 230 c12 -5 22 -16 22 -25 0 -8 5 -15 10 -15 6 0 10 7 10 15 0
15 -30 35 -52 34 -7 0 -3 -4 10 -9z"/>
<path d="M1665 232 c-5 -4 -10 -49 -10 -100 0 -76 3 -92 15 -92 12 0 15 8 12
35 -4 31 -2 34 14 29 18 -6 18 -6 2 7 -12 10 -18 32 -20 71 -2 36 -7 55 -13
50z"/>
<path d="M1705 230 c-3 -5 2 -10 12 -10 11 0 24 -5 31 -12 17 -17 15 -68 -5
-90 -16 -18 -16 -18 0 -12 39 14 50 89 19 117 -21 19 -48 22 -57 7z"/>
<path d="M1822 233 c-6 -3 -9 -9 -6 -15 10 -16 11 -82 2 -100 -7 -14 -4 -18
10 -18 16 0 18 7 14 63 -4 76 -4 75 -20 70z"/>
<path d="M1902 228 c-20 -20 -14 -34 25 -66 33 -26 36 -32 24 -46 -12 -14 -12
-16 3 -10 29 11 19 53 -19 75 -38 23 -41 29 -23 47 7 7 10 12 7 12 -3 0 -10
-5 -17 -12z"/>
<path d="M2068 233 c6 -2 12 -11 12 -19 0 -8 5 -14 10 -14 16 0 11 27 -6 34
-9 3 -19 6 -22 5 -4 0 -1 -3 6 -6z"/>
<path d="M2150 238 c-1 -2 -2 -33 -3 -71 -2 -54 1 -67 13 -67 12 0 14 13 12
70 -2 38 -8 70 -13 70 -5 0 -9 -1 -9 -2z"/>
<path d="M2278 233 c6 -2 12 -11 12 -19 0 -8 5 -14 10 -14 16 0 11 27 -6 34
-9 3 -19 6 -22 5 -4 0 -1 -3 6 -6z"/>
<path d="M2360 173 c4 -56 8 -68 24 -71 10 -2 23 1 28 6 7 7 4 10 -8 9 -16 -2
-20 7 -24 57 -3 33 -9 61 -15 63 -6 2 -8 -22 -5 -64z"/>
<path d="M2438 169 c3 -47 7 -66 15 -63 16 6 10 131 -6 131 -8 0 -11 -21 -9
-68z"/>
<path d="M2700 179 c5 -67 27 -96 52 -71 7 8 9 13 3 12 -28 -6 -34 3 -37 57
-2 31 -7 58 -13 60 -6 2 -8 -20 -5 -58z"/>
<path d="M2787 233 c-13 -12 -8 -135 5 -131 8 3 11 26 9 69 -3 68 -4 73 -14
62z"/>
<path d="M2865 232 c-6 -4 -10 -35 -10 -70 0 -48 3 -62 15 -62 12 0 15 13 13
66 -2 71 -3 77 -18 66z"/>
<path d="M2906 231 c-3 -5 1 -11 9 -15 15 -6 29 7 18 18 -9 9 -21 8 -27 -3z"/>
<path d="M3027 229 c6 -8 11 -34 11 -59 0 -67 1 -70 18 -70 12 0 14 3 6 13 -6
7 -12 37 -14 67 -2 37 -8 55 -18 58 -12 4 -13 2 -3 -9z"/>
<path d="M826 221 c-4 -7 -5 -15 -2 -18 9 -9 19 4 14 18 -4 11 -6 11 -12 0z"/>
<path d="M1080 211 c-14 -28 -12 -63 6 -89 17 -24 56 -29 73 -9 8 11 5 13 -18
9 -36 -5 -55 24 -49 74 5 39 3 41 -12 15z"/>
<path d="M1452 218 c-19 -19 -15 -82 6 -101 22 -21 42 -21 67 -4 16 13 15 14
-13 9 -24 -3 -34 1 -46 20 -16 25 -17 52 -3 76 10 15 5 16 -11 0z"/>
<path d="M2010 211 c-16 -30 -12 -76 8 -94 22 -20 55 -22 70 -4 8 9 3 12 -21
12 -40 0 -63 38 -47 79 11 30 5 35 -10 7z"/>
<path d="M2220 211 c-34 -65 20 -138 73 -98 16 11 14 12 -15 12 -41 0 -64 38
-48 79 11 30 5 35 -10 7z"/>
<path d="M2966 221 c-4 -7 -5 -15 -2 -18 9 -9 19 4 14 18 -4 11 -6 11 -12 0z"/>
<path d="M830 155 c-18 -22 -8 -50 20 -53 24 -3 24 -3 6 11 -13 9 -17 21 -13
36 6 25 4 26 -13 6z"/>
<path d="M2970 155 c-18 -22 -8 -50 20 -53 24 -3 24 -3 6 11 -13 9 -17 21 -13
36 6 25 4 26 -13 6z"/>
<path d="M91 133 c-1 -25 2 -31 14 -27 10 4 12 10 7 18 -5 6 -12 18 -15 26 -3
8 -6 1 -6 -17z"/>
<path d="M1890 121 c0 -5 7 -12 16 -15 14 -5 15 -4 4 9 -14 17 -20 19 -20 6z"/>
</g>
</svg>
